<svg xmlns="http://www.w3.org/2000/svg" viewBox="0 0 512 512" role="img" aria-label="Amourette: The first exchange"><title>The first exchange</title><g transform="translate(63.500 123.831) scale(1.148849)">

<g transform="translate(-11.780787,242.768154) scale(0.010000,-0.010000)"
fill="currentColor" stroke="none">
<path d="M8100 24056 c-522 -133 -1275 -375 -1672 -537 -886 -362 -2001 -1052
-2710 -1678 -1108 -977 -2048 -2516 -2377 -3894 -218 -910 -217 -2316 3 -3141
540 -2029 1964 -3829 4173 -5277 2452 -1606 5487 -2588 9205 -2975 810 -85
1837 -154 2282 -154 l810 0 -204 285 c-183 258 -293 298 -1125 412 -1231 168
-2445 530 -3420 1020 -1474 742 -2406 1593 -2937 2683 -217 447 -267 690 -267
1300 0 614 47 841 261 1250 144 275 456 688 695 917 238 230 1018 786 1733
1237 1586 1000 2238 1524 2858 2296 669 834 924 1544 934 2600 6 673 -38 948
-210 1322 -267 579 -1008 1386 -1579 1721 -234 137 -780 371 -1214 521 -721
248 -940 275 -2539 303 -1583 28 -1840 8 -2700 -211z"/>
<path d="M24050 19160 c-1160 -195 -2008 -508 -2773 -1024 -1594 -1076 -2124
-2980 -1298 -4659 423 -859 1400 -1779 2688 -2534 2112 -1237 2450 -1471 2837
-1960 216 -273 443 -684 505 -914 166 -613 59 -1578 -243 -2195 -335 -685
-1128 -1566 -1917 -2128 -1143 -816 -2933 -1511 -4515 -1753 -735 -112 -825
-151 -987 -424 l-177 -301 960 63 c2290 150 5299 733 7154 1386 2300 809 4422
2078 5819 3478 1302 1306 2035 2527 2412 4017 169 667 201 1019 158 1737 -206
3444 -2973 6282 -6919 7097 -1089 225 -2740 276 -3704 114z"/>
</g>
</g></svg>
